<?xml version="1.0" encoding="UTF-8" standalone="no"?>
<svg width="16px" height="16px" viewBox="0 0 16 16" version="1.1" xmlns="http://www.w3.org/2000/svg" xmlns:xlink="http://www.w3.org/1999/xlink">
    <!-- Generator: Sketch 39.1 (31720) - http://www.bohemiancoding.com/sketch -->
    <title>icon-gear</title>
    <desc>Created with Sketch.</desc>
    <defs></defs>
    <g id="Page-1" stroke="none" stroke-width="1" fill="none" fill-rule="evenodd">
        <g id="icon-gear" fill="#FFFFFF">
            <path d="M7.97342,11.5427303 C6.02436,11.5427303 4.42968,9.9445061 4.42968,7.991121 C4.42968,6.0377358 6.02436,4.4395117 7.97342,4.4395117 C9.92248,4.4395117 11.51717,6.0377358 11.51717,7.991121 C11.51717,9.9445061 9.92248,11.5427303 7.97342,11.5427303 M15.16722,6.2153163 L14.3876,6.2153163 C14.24585,5.6825749 14.03322,5.1675916 13.76744,4.6881243 L14.31672,4.1376249 C14.61794,3.8357381 14.61794,3.3385128 14.31672,3.036626 L12.89922,1.6159822 C12.59801,1.3140954 12.10188,1.3140954 11.80066,1.6159822 L11.25138,2.1664817 C10.77298,1.900111 10.27685,1.6870144 9.72757,1.5449501 L9.72757,0.7813541 C9.74529,0.3551609 9.39092,0 8.96567,0 L6.98117,0 C6.53821,0 6.20155,0.3551609 6.20155,0.7813541 L6.20155,1.5627081 C5.66999,1.7047725 5.15615,1.917869 4.67774,2.1842397 L4.12846,1.6337403 C3.82724,1.3318535 3.33112,1.3318535 3.0299,1.6337403 L1.6124,3.054384 C1.31118,3.3562708 1.31118,3.8534961 1.6124,4.1553829 L2.16168,4.7058824 C1.8959,5.1853496 1.68328,5.6825749 1.54153,6.2330744 L0.77962,6.2330744 C0.33666,6.2153163 0,6.5704772 0,6.9966704 L0,9.0033296 C0,9.4117647 0.33666,9.7669256 0.77962,9.7669256 L1.55925,9.7669256 C1.701,10.299667 1.91362,10.8146504 2.1794,11.2941176 L1.63012,11.8446171 C1.3289,12.1465039 1.3289,12.6437292 1.63012,12.945616 L3.04762,14.3662597 C3.34884,14.6681465 3.84496,14.6681465 4.14618,14.3662597 L4.69546,13.8157603 C5.17386,14.082131 5.66999,14.2952275 6.21927,14.4372919 L6.21927,15.2186459 C6.21927,15.6448391 6.57364,16 6.99889,16 L9.00111,16 C9.42636,16 9.78073,15.6448391 9.78073,15.2186459 L9.78073,14.4372919 C10.31229,14.2952275 10.82614,14.082131 11.30454,13.8157603 L11.85382,14.3662597 C12.15504,14.6681465 12.65116,14.6681465 12.95238,14.3662597 L14.36988,12.945616 C14.6711,12.6437292 14.6711,12.1465039 14.36988,11.8446171 L13.8206,11.2941176 C14.08638,10.8146504 14.299,10.3174251 14.44075,9.7669256 L15.22038,9.7669256 C15.64563,9.7669256 16,9.4117647 16,8.9855716 L16,6.9966704 C15.94684,6.5704772 15.59247,6.2153163 15.16722,6.2153163" id="Page-1"></path>
        </g>
    </g>
</svg>