<?xml version="1.0" encoding="UTF-8" standalone="no"?>
<svg width="198px" height="133px" viewBox="0 0 198 133" version="1.1" xmlns="http://www.w3.org/2000/svg" xmlns:xlink="http://www.w3.org/1999/xlink">
    <!-- Generator: Sketch 39.1 (31720) - http://www.bohemiancoding.com/sketch -->
    <title>Group 2</title>
    <desc>Created with Sketch.</desc>
    <defs>
        <polygon id="path-1" points="81.3624165 28.6446461 81.3624165 0.14497383 0.000100145138 0.14497383 0.000100145138 28.6446461 81.3624165 28.6446461"></polygon>
    </defs>
    <g id="Page-1" stroke="none" stroke-width="1" fill="none" fill-rule="evenodd">
        <g id="Sign-In" transform="translate(-519.000000, -201.000000)">
            <g id="Group-2" transform="translate(519.000000, 201.000000)">
                <g id="Group" transform="translate(59.000000, 0.000000)">
                    <g id="Group-3" transform="translate(0.690856, 32.936993)">
                        <mask id="mask-2" fill="white">
                            <use xlink:href="#path-1"></use>
                        </mask>
                        <g id="Clip-2"></g>
                        <path d="M76.3552598,28.6446461 L5.00735704,28.6446461 C2.25336575,28.6446461 0.000100145138,26.391945 0.000100145138,23.6386437 L0.000100145138,5.15097623 C0.000100145138,2.39767491 2.25336575,0.14497383 5.00735704,0.14497383 L76.3552598,0.14497383 C79.1092511,0.14497383 81.3625167,2.39767491 81.3625167,5.15097623 L81.3625167,23.6386437 C81.3625167,26.391945 79.1092511,28.6446461 76.3552598,28.6446461" id="Fill-1" fill-opacity="0.9" fill="#FFFFFF" mask="url(#mask-2)"></path>
                    </g>
                    <path d="M26.8166197,82.9970168 L26.8166197,33.1302245 L55.9278099,33.1302245 L55.9278099,82.9970168 C55.9278099,85.7503181 53.6745443,88.0030192 50.920553,88.0030192 L31.8238766,88.0030192 C29.0698853,88.0030192 26.8166197,85.7503181 26.8166197,82.9970168" id="Fill-4" fill-opacity="0.6" fill="#FFFFFF"></path>
                    <path d="M26.9578745,14.252189 C26.9578745,6.38075078 33.3406248,0.000100120048 41.2135348,0.000100120048 C49.0869456,0.000100120048 55.4691952,6.38075078 55.4691952,14.252189 C55.4691952,22.1236271 49.0869456,28.5042778 41.2135348,28.5042778 C33.3406248,28.5042778 26.9578745,22.1236271 26.9578745,14.252189" id="Fill-6" fill="#FFFFFF"></path>
                </g>
                <path d="M15.5686372,131.627851 L19.2976372,131.627851 L11.8396372,108.527851 L8.11063716,108.527851 L0.652637155,131.627851 L4.41463716,131.627851 L6.32863716,125.225851 L13.6546372,125.225851 L15.5686372,131.627851 Z M9.36463716,115.127851 C9.66163716,114.137851 9.92563716,113.015851 9.99163716,112.520851 C10.0576372,112.949851 10.2886372,114.038851 10.6186372,115.061851 L12.6976372,122.057851 L7.28563716,122.057851 L9.36463716,115.127851 Z M37.1476372,118.328851 C35.6626372,116.711851 33.6826372,115.688851 31.3066372,115.688851 C26.7856372,115.688851 23.3866372,119.285851 23.3866372,123.806851 C23.3866372,128.327851 26.7856372,131.924851 31.3396372,131.924851 C33.9466372,131.924851 35.9926372,130.835851 37.5106372,128.789851 L35.0026372,126.809851 C34.1776372,127.997851 32.9236372,128.789851 31.3396372,128.789851 C28.6996372,128.789851 26.8186372,126.776851 26.8186372,123.806851 C26.8186372,120.935851 28.6336372,118.823851 31.3396372,118.823851 C32.8576372,118.823851 33.9136372,119.516851 34.8376372,120.539851 C35.5966372,119.813851 36.3886372,119.087851 37.1476372,118.328851 L37.1476372,118.328851 Z M47.3086372,131.627851 L47.3086372,122.255851 C47.3746372,119.945851 48.8596372,118.625851 50.5756372,118.625851 C52.2586372,118.625851 53.3806372,119.780851 53.3806372,121.628851 L53.3806372,131.627851 L56.7796372,131.627851 L56.7796372,122.420851 C56.7796372,119.978851 58.2646372,118.559851 60.0136372,118.559851 C61.7626372,118.559851 62.8846372,119.813851 62.8846372,121.694851 L62.8846372,131.627851 L66.2836372,131.627851 L66.2836372,121.529851 C66.2836372,117.668851 64.1386372,115.688851 61.1026372,115.688851 C58.9246372,115.688851 57.1756372,116.744851 56.1526372,118.427851 C55.3606372,116.711851 53.8756372,115.688851 51.6646372,115.688851 C49.8166372,115.688851 48.2326372,116.612851 47.2096372,118.163851 C47.2756372,117.767851 47.3086372,117.338851 47.3086372,116.975851 L47.3086372,116.051851 L43.9096372,116.051851 L43.9096372,131.627851 L47.3086372,131.627851 Z M80.6026372,131.957851 C84.1666372,131.957851 85.9486372,130.637851 87.4996372,128.591851 L85.1566372,126.809851 C84.2986372,128.063851 82.8466372,129.086851 80.7346372,129.086851 C78.4576372,129.086851 76.4116372,127.700851 76.0816372,124.664851 L87.6976372,124.664851 L87.6976372,123.806851 C87.6976372,119.384851 85.4536372,115.688851 80.4046372,115.688851 C75.6856372,115.688851 72.6496372,119.351851 72.6496372,123.806851 C72.6496372,128.459851 75.8836372,131.957851 80.6026372,131.957851 L80.6026372,131.957851 Z M80.3716372,118.559851 C82.5166372,118.559851 83.9686372,120.011851 84.2656372,122.354851 L76.1806372,122.354851 C76.6426372,119.846851 78.3586372,118.559851 80.3716372,118.559851 L80.3716372,118.559851 Z M110.002637,131.627851 L110.002637,108.527851 L106.471637,108.527851 L106.471637,117.008851 L98.0236372,117.008851 L98.0236372,108.527851 L94.4926372,108.527851 L94.4926372,131.627851 L98.0236372,131.627851 L98.0236372,120.275851 L106.471637,120.275851 L106.471637,131.627851 L110.002637,131.627851 Z M124.750637,131.957851 C128.314637,131.957851 130.096637,130.637851 131.647637,128.591851 L129.304637,126.809851 C128.446637,128.063851 126.994637,129.086851 124.882637,129.086851 C122.605637,129.086851 120.559637,127.700851 120.229637,124.664851 L131.845637,124.664851 L131.845637,123.806851 C131.845637,119.384851 129.601637,115.688851 124.552637,115.688851 C119.833637,115.688851 116.797637,119.351851 116.797637,123.806851 C116.797637,128.459851 120.031637,131.957851 124.750637,131.957851 L124.750637,131.957851 Z M124.519637,118.559851 C126.664637,118.559851 128.116637,120.011851 128.413637,122.354851 L120.328637,122.354851 C120.790637,119.846851 122.506637,118.559851 124.519637,118.559851 L124.519637,118.559851 Z M153.226637,131.627851 L153.226637,128.459851 L152.764637,128.459851 C152.170637,128.459851 151.807637,128.096851 151.807637,127.535851 L151.807637,121.826851 C151.807637,118.097851 149.233637,115.556851 145.042637,115.556851 C140.719637,115.556851 138.904637,118.625851 138.904637,118.625851 L141.379637,120.506851 C142.171637,119.351851 143.524637,118.658851 144.910637,118.658851 C147.055637,118.658851 148.441637,119.978851 148.441637,121.925851 L148.441637,122.717851 C147.616637,122.552851 146.164637,122.222851 144.481637,122.222851 C139.762637,122.222851 137.485637,124.565851 137.485637,127.370851 C137.485637,129.713851 139.267637,131.957851 142.798637,131.957851 C145.900637,131.957851 147.814637,130.406851 148.804637,128.888851 C149.266637,130.505851 150.289637,131.627851 152.269637,131.627851 L153.226637,131.627851 Z M143.557637,129.152851 C141.841637,129.152851 141.016637,128.261851 141.016637,127.172851 C141.016637,125.687851 142.600637,124.631851 145.042637,124.631851 C146.296637,124.631851 147.649637,124.862851 148.408637,125.027851 C148.045637,127.073851 146.395637,129.152851 143.557637,129.152851 L143.557637,129.152851 Z M162.760637,131.627851 L162.760637,106.877851 L159.262637,106.877851 L159.262637,131.627851 L162.760637,131.627851 Z M169.027637,116.051851 L169.027637,119.186851 L171.469637,119.186851 L171.469637,131.627851 L174.934637,131.627851 L174.934637,119.186851 L177.376637,119.186851 L177.376637,116.051851 L174.934637,116.051851 L174.934637,109.979851 L171.469637,109.979851 L171.469637,116.051851 L169.027637,116.051851 Z M187.042637,131.627851 L187.042637,122.783851 C187.174637,120.440851 188.890637,118.559851 190.969637,118.559851 C193.081637,118.559851 194.599637,120.011851 194.599637,122.750851 L194.599637,131.627851 L198.031637,131.627851 L198.031637,122.618851 C198.031637,118.163851 195.556637,115.688851 191.992637,115.688851 C189.781637,115.688851 188.032637,116.843851 186.943637,118.394851 C187.009637,117.932851 187.042637,117.470851 187.042637,117.107851 L187.042637,106.877851 L183.643637,106.877851 L183.643637,131.627851 L187.042637,131.627851 Z" id="AcmeHealth" fill="#FFFFFF"></path>
            </g>
        </g>
    </g>
</svg>