<?xml version="1.0" encoding="UTF-8" standalone="no"?>
<svg width="169px" height="34px" viewBox="0 0 169 34" version="1.1" xmlns="http://www.w3.org/2000/svg" xmlns:xlink="http://www.w3.org/1999/xlink">
    <!-- Generator: Sketch 39.1 (31720) - http://www.bohemiancoding.com/sketch -->
    <title>Logo</title>
    <desc>Created with Sketch.</desc>
    <defs>
        <polygon id="path-1" points="31.4195156 11.0539795 31.4195156 0.0559454545 3.86727909e-05 0.0559454545 3.86727909e-05 11.0539795 31.4195156 11.0539795"></polygon>
    </defs>
    <g id="Page-1" stroke="none" stroke-width="1" fill="none" fill-rule="evenodd">
        <g id="Schedule">
            <g id="Icon">
                <g id="Group-3" transform="translate(0.000000, 12.710398)">
                    <mask id="mask-2" fill="white">
                        <use xlink:href="#path-1"></use>
                    </mask>
                    <g id="Clip-2"></g>
                    <path d="M29.4859148,11.0539795 L1.93367822,11.0539795 C0.870176469,11.0539795 3.86727909e-05,10.1846614 3.86727909e-05,9.12216136 L3.86727909e-05,1.98776364 C3.86727909e-05,0.925263636 0.870176469,0.0559454545 1.93367822,0.0559454545 L29.4859148,0.0559454545 C30.5494165,0.0559454545 31.4195543,0.925263636 31.4195543,1.98776364 L31.4195543,9.12216136 C31.4195543,10.1846614 30.5494165,11.0539795 29.4859148,11.0539795" id="Fill-1" fill-opacity="0.9" fill="#FFFFFF" mask="url(#mask-2)"></path>
                </g>
                <path d="M10.088919,32.0285795 L10.088919,12.7849659 L21.3307126,12.7849659 L21.3307126,32.0285795 C21.3307126,33.0910795 20.4605748,33.9603977 19.3970731,33.9603977 L12.0225586,33.9603977 C10.9590568,33.9603977 10.088919,33.0910795 10.088919,32.0285795" id="Fill-4" fill-opacity="0.6" fill="#FFFFFF"></path>
                <path d="M10.143467,5.499925 C10.143467,2.46233409 12.6082773,3.86363635e-05 15.6485388,3.86363635e-05 C18.6889936,3.86363635e-05 21.1536106,2.46233409 21.1536106,5.499925 C21.1536106,8.53751591 18.6889936,10.9998114 15.6485388,10.9998114 C12.6082773,10.9998114 10.143467,8.53751591 10.143467,5.499925" id="Fill-6" fill="#FFFFFF"></path>
            </g>
            <path d="M50.5459602,24.7473684 L52.9867602,24.7473684 L48.1051602,9.62736842 L45.6643602,9.62736842 L40.7827602,24.7473684 L43.2451602,24.7473684 L44.4979602,20.5569684 L49.2931602,20.5569684 L50.5459602,24.7473684 Z M46.4851602,13.9473684 C46.6795602,13.2993684 46.8523602,12.5649684 46.8955602,12.2409684 C46.9387602,12.5217684 47.0899602,13.2345684 47.3059602,13.9041684 L48.6667602,18.4833684 L45.1243602,18.4833684 L46.4851602,13.9473684 Z M64.474033,16.0425684 C63.502033,14.9841684 62.206033,14.3145684 60.650833,14.3145684 C57.691633,14.3145684 55.466833,16.6689684 55.466833,19.6281684 C55.466833,22.5873684 57.691633,24.9417684 60.672433,24.9417684 C62.378833,24.9417684 63.718033,24.2289684 64.711633,22.8897684 L63.070033,21.5937684 C62.530033,22.3713684 61.709233,22.8897684 60.672433,22.8897684 C58.944433,22.8897684 57.713233,21.5721684 57.713233,19.6281684 C57.713233,17.7489684 58.901233,16.3665684 60.672433,16.3665684 C61.666033,16.3665684 62.357233,16.8201684 62.962033,17.4897684 C63.458833,17.0145684 63.977233,16.5393684 64.474033,16.0425684 L64.474033,16.0425684 Z M70.9285057,24.7473684 L70.9285057,18.6129684 C70.9717057,17.1009684 71.9437057,16.2369684 73.0669057,16.2369684 C74.1685057,16.2369684 74.9029057,16.9929684 74.9029057,18.2025684 L74.9029057,24.7473684 L77.1277057,24.7473684 L77.1277057,18.7209684 C77.1277057,17.1225684 78.0997057,16.1937684 79.2445057,16.1937684 C80.3893057,16.1937684 81.1237057,17.0145684 81.1237057,18.2457684 L81.1237057,24.7473684 L83.3485057,24.7473684 L83.3485057,18.1377684 C83.3485057,15.6105684 81.9445057,14.3145684 79.9573057,14.3145684 C78.5317057,14.3145684 77.3869057,15.0057684 76.7173057,16.1073684 C76.1989057,14.9841684 75.2269057,14.3145684 73.7797057,14.3145684 C72.5701057,14.3145684 71.5333057,14.9193684 70.8637057,15.9345684 C70.9069057,15.6753684 70.9285057,15.3945684 70.9285057,15.1569684 L70.9285057,14.5521684 L68.7037057,14.5521684 L68.7037057,24.7473684 L70.9285057,24.7473684 Z M92.5245785,24.9633684 C94.8573785,24.9633684 96.0237785,24.0993684 97.0389785,22.7601684 L95.5053785,21.5937684 C94.9437785,22.4145684 93.9933785,23.0841684 92.6109785,23.0841684 C91.1205785,23.0841684 89.7813785,22.1769684 89.5653785,20.1897684 L97.1685785,20.1897684 L97.1685785,19.6281684 C97.1685785,16.7337684 95.6997785,14.3145684 92.3949785,14.3145684 C89.3061785,14.3145684 87.3189785,16.7121684 87.3189785,19.6281684 C87.3189785,22.6737684 89.4357785,24.9633684 92.5245785,24.9633684 L92.5245785,24.9633684 Z M92.3733785,16.1937684 C93.7773785,16.1937684 94.7277785,17.1441684 94.9221785,18.6777684 L89.6301785,18.6777684 C89.9325785,17.0361684 91.0557785,16.1937684 92.3733785,16.1937684 L92.3733785,16.1937684 Z M111.571851,24.7473684 L111.571851,9.62736842 L109.260651,9.62736842 L109.260651,15.1785684 L103.731051,15.1785684 L103.731051,9.62736842 L101.419851,9.62736842 L101.419851,24.7473684 L103.731051,24.7473684 L103.731051,17.3169684 L109.260651,17.3169684 L109.260651,24.7473684 L111.571851,24.7473684 Z M121.028724,24.9633684 C123.361524,24.9633684 124.527924,24.0993684 125.543124,22.7601684 L124.009524,21.5937684 C123.447924,22.4145684 122.497524,23.0841684 121.115124,23.0841684 C119.624724,23.0841684 118.285524,22.1769684 118.069524,20.1897684 L125.672724,20.1897684 L125.672724,19.6281684 C125.672724,16.7337684 124.203924,14.3145684 120.899124,14.3145684 C117.810324,14.3145684 115.823124,16.7121684 115.823124,19.6281684 C115.823124,22.6737684 117.939924,24.9633684 121.028724,24.9633684 L121.028724,24.9633684 Z M120.877524,16.1937684 C122.281524,16.1937684 123.231924,17.1441684 123.426324,18.6777684 L118.134324,18.6777684 C118.436724,17.0361684 119.559924,16.1937684 120.877524,16.1937684 L120.877524,16.1937684 Z M139.471197,24.7473684 L139.471197,22.6737684 L139.168797,22.6737684 C138.779997,22.6737684 138.542397,22.4361684 138.542397,22.0689684 L138.542397,18.3321684 C138.542397,15.8913684 136.857597,14.2281684 134.114397,14.2281684 C131.284797,14.2281684 130.096797,16.2369684 130.096797,16.2369684 L131.716797,17.4681684 C132.235197,16.7121684 133.120797,16.2585684 134.027997,16.2585684 C135.431997,16.2585684 136.339197,17.1225684 136.339197,18.3969684 L136.339197,18.9153684 C135.799197,18.8073684 134.848797,18.5913684 133.747197,18.5913684 C130.658397,18.5913684 129.167997,20.1249684 129.167997,21.9609684 C129.167997,23.4945684 130.334397,24.9633684 132.645597,24.9633684 C134.675997,24.9633684 135.928797,23.9481684 136.576797,22.9545684 C136.879197,24.0129684 137.548797,24.7473684 138.844797,24.7473684 L139.471197,24.7473684 Z M133.142397,23.1273684 C132.019197,23.1273684 131.479197,22.5441684 131.479197,21.8313684 C131.479197,20.8593684 132.515997,20.1681684 134.114397,20.1681684 C134.935197,20.1681684 135.820797,20.3193684 136.317597,20.4273684 C136.079997,21.7665684 134.999997,23.1273684 133.142397,23.1273684 L133.142397,23.1273684 Z M145.51527,24.7473684 L145.51527,8.54736842 L143.22567,8.54736842 L143.22567,24.7473684 L145.51527,24.7473684 Z M149.420942,14.5521684 L149.420942,16.6041684 L151.019342,16.6041684 L151.019342,24.7473684 L153.287342,24.7473684 L153.287342,16.6041684 L154.885742,16.6041684 L154.885742,14.5521684 L153.287342,14.5521684 L153.287342,10.5777684 L151.019342,10.5777684 L151.019342,14.5521684 L149.420942,14.5521684 Z M161.016215,24.7473684 L161.016215,18.9585684 C161.102615,17.4249684 162.225815,16.1937684 163.586615,16.1937684 C164.969015,16.1937684 165.962615,17.1441684 165.962615,18.9369684 L165.962615,24.7473684 L168.209015,24.7473684 L168.209015,18.8505684 C168.209015,15.9345684 166.589015,14.3145684 164.256215,14.3145684 C162.809015,14.3145684 161.664215,15.0705684 160.951415,16.0857684 C160.994615,15.7833684 161.016215,15.4809684 161.016215,15.2433684 L161.016215,8.54736842 L158.791415,8.54736842 L158.791415,24.7473684 L161.016215,24.7473684 Z" id="AcmeHealth" fill="#FFFFFF"></path>
        </g>
    </g>
</svg>